<?xml version="1.0" encoding="utf-8"?>
<!-- Generator: Adobe Illustrator 19.2.1, SVG Export Plug-In . SVG Version: 6.00 Build 0)  -->
<svg version="1.1" id="layer" xmlns="http://www.w3.org/2000/svg" xmlns:xlink="http://www.w3.org/1999/xlink" x="0px" y="0px"
	 viewBox="0 0 652 652" style="enable-background:new 0 0 652 652;" xml:space="preserve">
<style type="text/css">
	.st0{fill:#00B899;}
</style>
<path class="st0" d="M390.9,146.6c0-41.4,34.9-74.9,77.8-74.9s77.9,33.5,77.9,74.9s-34.9,74.9-77.9,74.9S390.9,188,390.9,146.6z
	 M606.2,441.6h-17.4c-35.7,0-53.7-25.3-53.7-65.2v-74.9H403.2v106.1c0,115.3,76.4,163.7,150.4,163.7h52.5V441.6z M169.9,477.2
	c0-38.6,21.3-56.1,64.7-56.1h107.5V301.2H169.9v-49.5c0-39.2,33.8-60.5,74.2-60.5H342V71.4H210.4C107.1,71.4,37.8,126,37.8,240.7
	v330.4h132.1V477.2z"/>
</svg>
