<?xml version="1.0" encoding="utf-8"?>
<!-- Generator: Adobe Illustrator 19.0.0, SVG Export Plug-In . SVG Version: 6.00 Build 0)  -->
<svg version="1.1" id="layer" xmlns="http://www.w3.org/2000/svg" xmlns:xlink="http://www.w3.org/1999/xlink" x="0px" y="0px"
	 viewBox="-153 -46 652 652" style="enable-background:new -153 -46 652 652;" xml:space="preserve">
<style type="text/css">
	.st0{fill:#6FBF4A;}
	.st1{fill:#555759;}
</style>
<polygon class="st0" points="443.5,274.6 468.5,211.7 405.4,236.5 433.4,246.5 "/>
<path class="st1" d="M-47.4,252.5h18.8v84.7h-18.8V252.5z M41.7,333.9c5.4-2.2,10.3-5.2,14.4-9c4.1-3.8,7.1-8.2,9.3-13.3
	c2.2-5.2,3.3-10.6,3.3-16.6v-0.3c0-6-1.1-11.4-3.3-16.6c-2.2-5.2-5.2-9.5-9.3-13.3c-4.1-3.8-8.7-6.8-14.4-9
	c-5.4-2.2-11.7-3.3-18.2-3.3H-9.5v84.7h32.9C30.2,337.2,36.2,336.1,41.7,333.9z M9.3,269.1h14.4c3.8,0,7.4,0.5,10.3,1.9
	c3.3,1.4,5.7,3,8.2,5.2c2.2,2.2,4.1,4.9,5.2,8.2c1.4,3.3,1.9,6.5,1.9,10.3v0.3c0,3.8-0.5,7.4-1.9,10.3c-1.4,3-3,5.7-5.2,7.9
	c-2.2,2.2-4.9,4.1-8.2,5.2c-3.3,1.1-6.5,1.9-10.3,1.9H9.3V269.1z M211.8,334.5c2.7-1.4,5.4-3,7.6-4.9c2.5-1.9,4.6-4.1,6.8-6.3
	l-11.7-11.7c-4.9,6-12.5,10.1-21,10.1c-4.1,0-7.6-0.8-11.2-2.4c-0.3,0-0.3,0-0.5-0.3c-0.8-0.3-1.4-0.8-2.2-1.1
	c-0.5-0.3-1.4-0.8-1.9-1.1c-0.3-0.3-0.5-0.5-1.1-0.8c-6.5-4.9-10.6-12.5-10.6-21.5s4.4-16.6,10.9-21.5c0.3-0.3,0.5-0.3,0.8-0.5
	c0.8-0.5,1.6-1.1,2.4-1.4c0.5-0.3,1.1-0.5,1.6-0.8h0.3c3.5-1.6,7.1-2.4,11.2-2.4c8.2,0,15.5,3.8,20.4,9.5l11.4-13.1
	c-1.9-1.9-4.1-3.8-6.3-5.4c-2.2-1.6-4.6-3-7.4-4.1c-2.7-1.1-5.7-1.9-9-2.7c-3.3-0.5-6.8-1.1-10.9-1.1c-6.5,0-12.5,1.1-18,3.5
	c-5.4,2.2-10.1,5.4-13.9,9.5c-3.8,4.1-6.8,8.7-9,13.9c-2.2,5.2-3.3,10.9-3.3,17.2v0.3c0,6,1.1,11.7,3.3,17.2
	c2.2,5.4,5.2,10.1,9,13.9c3.8,3.8,8.4,7.1,13.9,9.3c5.4,2.2,11.2,3.3,17.4,3.3c4.1,0,7.9-0.3,11.2-1.1
	C205.8,336.9,208.8,335.8,211.8,334.5z M334.3,320.3v-68.1h-18.8v75.1v1.6v0.8c0,3.8,3.3,7.1,7.1,7.1h1.4h1.4h51.2v-16.6
	L334.3,320.3L334.3,320.3z M409.5,320.3v-68.1h-18.8v75.1v1.6v0.8c0,3.8,3.3,7.1,7.1,7.1h1.4h1.4h51.2v-16.6L409.5,320.3
	L409.5,320.3z M257.3,320.3v-17.7h36.5V286h-36.5v-9.8v-7.1h42.2v-16.9h-51.2h-1.4h-1.4c-3.8,0-7.1,3.3-7.1,7.1v1.1v1.6v14.2v19.6
	v31.6v1.6v0.8c0,3.8,3.3,7.1,7.1,7.1h1.4h1.4h51.2v-16.6L257.3,320.3L257.3,320.3z M96.7,320.3v-17.7h36.5V286H96.7v-9.8v-7.1h42.2
	v-16.9H87.7h-1.4H85c-3.8,0-7.1,3.3-7.1,7.1v1.1v1.6v14.2v19.6v31.6v1.6v0.8c0,3.8,3.3,7.1,7.1,7.1h1.4h1.4h51.2v-16.6L96.7,320.3
	L96.7,320.3z M-79.2,311.3c0-0.3,0-0.3,0.3-0.3c6.3-7.9,14.4-16.9,15.2-27.8c0-0.8,0.3-1.9,0.3-2.7c0-4.4-1.1-8.7-3-12.3
	c0-0.3-0.3-0.5-0.3-0.8c-0.3-0.3-0.5-0.8-0.5-1.1c-0.3-0.3-0.5-0.8-0.5-1.1c-4.9-7.6-13.6-12.8-23.4-12.8c-0.5,0-28.9,0-31.3,0
	c-4.9,0-9,4.1-9,9.3v4.1v71.3h18.5v-68.1c0,0,9.8,0,18,0c9.3,0,13.6,6.3,13.6,12c0,7.1-10.3,18-14.7,22.3c-1.6,1.9-3.3,3.8-3.5,6.3
	c-0.3,2.5,0.5,4.9,2.2,6.8l17.7,20.4h22.6c0,0-12.5-14.4-22.1-25.3C-79.2,311.9-79.5,311.6-79.2,311.3z"/>
</svg>
